<svg id="ew4xrl0yg6jp1" xmlns="http://www.w3.org/2000/svg" xmlns:xlink="http://www.w3.org/1999/xlink" viewBox="0 0 80.306000 104.246000" shape-rendering="geometricPrecision" text-rendering="geometricPrecision"><style><![CDATA[#ew4xrl0yg6jp9_ts {animation: ew4xrl0yg6jp9_ts__ts 3000ms linear infinite normal forwards}@keyframes ew4xrl0yg6jp9_ts__ts { 0% {transform: translate(17px,4.500000px) scale(1,1)} 46% {transform: translate(17px,4.500000px) scale(2,2)} 100% {transform: translate(17px,4.500000px) scale(2,2)} }#ew4xrl0yg6jp9 {animation: ew4xrl0yg6jp9_c_o 3000ms linear infinite normal forwards}@keyframes ew4xrl0yg6jp9_c_o { 0% {opacity: 1} 46.666667% {opacity: 0} 100% {opacity: 0} }#ew4xrl0yg6jp12_ts {animation: ew4xrl0yg6jp12_ts__ts 3000ms linear infinite normal forwards}@keyframes ew4xrl0yg6jp12_ts__ts { 0% {transform: translate(17px,4.500000px) scale(1,1)} 26.666667% {transform: translate(17px,4.500000px) scale(1,1)} 73.333333% {transform: translate(17px,4.500000px) scale(2,2)} 100% {transform: translate(17px,4.500000px) scale(2,2)} }#ew4xrl0yg6jp12 {animation: ew4xrl0yg6jp12_c_o 3000ms linear infinite normal forwards}@keyframes ew4xrl0yg6jp12_c_o { 0% {opacity: 1} 26.666667% {opacity: 1} 73.333333% {opacity: 0} 100% {opacity: 0} }#ew4xrl0yg6jp15_ts {animation: ew4xrl0yg6jp15_ts__ts 3000ms linear infinite normal forwards}@keyframes ew4xrl0yg6jp15_ts__ts { 0% {transform: translate(17px,4.500000px) scale(1,1)} 26.666667% {transform: translate(17px,4.500000px) scale(1,1)} 53.333333% {transform: translate(17px,4.500000px) scale(1,1)} 100% {transform: translate(17px,4.500000px) scale(2,2)} }#ew4xrl0yg6jp15 {animation: ew4xrl0yg6jp15_c_o 3000ms linear infinite normal forwards}@keyframes ew4xrl0yg6jp15_c_o { 0% {opacity: 1} 53.333333% {opacity: 1} 100% {opacity: 0} }]]></style><g id="ew4xrl0yg6jp2" transform="matrix(1 0 0 1 453.83199999999999 -283.75400000000002)"><g id="ew4xrl0yg6jp3" transform="matrix(1 0 0 1 -453.83199999999999 283.75400000000002)"><g id="ew4xrl0yg6jp4"><path id="ew4xrl0yg6jp5" d="M0,0L80.306000,0L80.306000,80.306000L0,80.306000Z" transform="matrix(1 0 0 1 0 -6)" fill="none" stroke="none" stroke-width="1"/><path id="ew4xrl0yg6jp6" d="M28.423000,2C22.209451,1.995485,16.249096,4.461809,11.855453,8.855453C7.461809,13.249096,4.995485,19.209451,5,25.423000C5,42.990000,28.423000,68.923000,28.423000,68.923000C28.423000,68.923000,51.846000,42.991000,51.846000,25.423000C51.850515,19.209451,49.384191,13.249096,44.990547,8.855453C40.596904,4.461809,34.636549,1.995485,28.423000,2ZM28.423000,33.788000C23.803138,33.788000,20.058000,30.042862,20.058000,25.423000C20.058000,20.803138,23.803138,17.058000,28.423000,17.058000C33.042862,17.058000,36.788000,20.803138,36.788000,25.423000C36.786344,30.042176,33.042176,33.786344,28.423000,33.788000Z" transform="matrix(1 0 0 1 11.73000000000000 -1.30800000000000)" fill="rgb(207,0,0)" stroke="none" stroke-width="1"/></g></g><g id="ew4xrl0yg6jp7" transform="matrix(1 0 0 1 -431 344)"><ellipse id="ew4xrl0yg6jp8" rx="17" ry="16.500000" transform="matrix(1 0 0 1 17 4.50000000000000)" fill="none" stroke="none" stroke-width="5"/><g id="ew4xrl0yg6jp9_ts" transform="translate(17,4.500000) scale(1,1)"><ellipse id="ew4xrl0yg6jp9" rx="14.500000" ry="14" transform="translate(0,0)" fill="none" stroke="rgb(207,0,0)" stroke-width="5"/></g></g><g id="ew4xrl0yg6jp10" transform="matrix(1 0 0 1 -431 344)"><ellipse id="ew4xrl0yg6jp11" rx="17" ry="16.500000" transform="matrix(1 0 0 1 17 4.50000000000000)" fill="none" stroke="none" stroke-width="5"/><g id="ew4xrl0yg6jp12_ts" transform="translate(17,4.500000) scale(1,1)"><ellipse id="ew4xrl0yg6jp12" rx="14.500000" ry="14" transform="translate(0,0)" fill="none" stroke="rgb(207,0,0)" stroke-width="5"/></g></g><g id="ew4xrl0yg6jp13" transform="matrix(1 0 0 1 -431 344)"><ellipse id="ew4xrl0yg6jp14" rx="17" ry="16.500000" transform="matrix(1 0 0 1 17 4.50000000000000)" fill="none" stroke="none" stroke-width="5"/><g id="ew4xrl0yg6jp15_ts" transform="translate(17,4.500000) scale(1,1)"><ellipse id="ew4xrl0yg6jp15" rx="14.500000" ry="14" transform="translate(0,0)" fill="none" stroke="rgb(207,0,0)" stroke-width="5"/></g></g><g id="ew4xrl0yg6jp16" transform="matrix(1 0 0 1 -431 344)"><ellipse id="ew4xrl0yg6jp17" rx="17" ry="16.500000" transform="matrix(1 0 0 1 17 4.50000000000000)" fill="none" stroke="none" stroke-width="5"/><ellipse id="ew4xrl0yg6jp18" rx="14.500000" ry="14" transform="matrix(1 0 0 1 17 4.50000000000000)" fill="none" stroke="rgb(207,0,0)" stroke-width="5"/></g></g></svg>