<svg id="ee7ffv7tyuqv1" xmlns="http://www.w3.org/2000/svg" xmlns:xlink="http://www.w3.org/1999/xlink" viewBox="0 0 80.306000 104.246000" shape-rendering="geometricPrecision" text-rendering="geometricPrecision"><style><![CDATA[#ee7ffv7tyuqv13_ts {animation: ee7ffv7tyuqv13_ts__ts 3000ms linear infinite normal forwards}@keyframes ee7ffv7tyuqv13_ts__ts { 0% {transform: translate(17px,4.500000px) scale(1,1)} 46% {transform: translate(17px,4.500000px) scale(2,2)} 100% {transform: translate(17px,4.500000px) scale(2,2)} }#ee7ffv7tyuqv13 {animation: ee7ffv7tyuqv13_c_o 3000ms linear infinite normal forwards}@keyframes ee7ffv7tyuqv13_c_o { 0% {opacity: 1} 46.666667% {opacity: 0} 100% {opacity: 0} }#ee7ffv7tyuqv16_ts {animation: ee7ffv7tyuqv16_ts__ts 3000ms linear infinite normal forwards}@keyframes ee7ffv7tyuqv16_ts__ts { 0% {transform: translate(17px,4.500000px) scale(1,1)} 26.666667% {transform: translate(17px,4.500000px) scale(1,1)} 73.333333% {transform: translate(17px,4.500000px) scale(2,2)} 100% {transform: translate(17px,4.500000px) scale(2,2)} }#ee7ffv7tyuqv16 {animation: ee7ffv7tyuqv16_c_o 3000ms linear infinite normal forwards}@keyframes ee7ffv7tyuqv16_c_o { 0% {opacity: 1} 26.666667% {opacity: 1} 73.333333% {opacity: 0} 100% {opacity: 0} }#ee7ffv7tyuqv19_ts {animation: ee7ffv7tyuqv19_ts__ts 3000ms linear infinite normal forwards}@keyframes ee7ffv7tyuqv19_ts__ts { 0% {transform: translate(17px,4.500000px) scale(1,1)} 26.666667% {transform: translate(17px,4.500000px) scale(1,1)} 53.333333% {transform: translate(17px,4.500000px) scale(1,1)} 100% {transform: translate(17px,4.500000px) scale(2,2)} }#ee7ffv7tyuqv19 {animation: ee7ffv7tyuqv19_c_o 3000ms linear infinite normal forwards}@keyframes ee7ffv7tyuqv19_c_o { 0% {opacity: 1} 53.333333% {opacity: 1} 100% {opacity: 0} }]]></style><g id="ee7ffv7tyuqv2" transform="matrix(1 0 0 1 453.83199999999999 -283.75400000000002)"><g id="ee7ffv7tyuqv3" transform="matrix(1 0 0 1 -453.83199999999999 283.75400000000002)"><g id="ee7ffv7tyuqv4"><path id="ee7ffv7tyuqv5" d="M0,0L80.306000,0L80.306000,80.306000L0,80.306000Z" transform="matrix(1 0 0 1 0 -6)" fill="none" stroke="none" stroke-width="1"/><path id="ee7ffv7tyuqv6" d="M28.423000,2C22.209451,1.995485,16.249096,4.461809,11.855453,8.855453C7.461809,13.249096,4.995485,19.209451,5,25.423000C5,42.990000,28.423000,68.923000,28.423000,68.923000C28.423000,68.923000,51.846000,42.991000,51.846000,25.423000C51.850515,19.209451,49.384191,13.249096,44.990547,8.855453C40.596904,4.461809,34.636549,1.995485,28.423000,2ZM28.423000,33.788000C23.803138,33.788000,20.058000,30.042862,20.058000,25.423000C20.058000,20.803138,23.803138,17.058000,28.423000,17.058000C33.042862,17.058000,36.788000,20.803138,36.788000,25.423000C36.786344,30.042176,33.042176,33.786344,28.423000,33.788000Z" transform="matrix(1 0 0 1 11.73000000000000 -1.30800000000000)" fill="rgb(106,63,27)" stroke="none" stroke-width="1"/></g><circle id="ee7ffv7tyuqv7" r="14" transform="matrix(1 0 0 1 39.83200000000000 23.24600000000000)" fill="rgb(106,63,27)" stroke="none" stroke-width="1"/><g id="ee7ffv7tyuqv8" transform="matrix(1 0 0 1 27.02000000000000 17.47900000000000)"><path id="ee7ffv7tyuqv9" d="M0,0L26.335000,0L26.335000,26.335000L0,26.335000Z" transform="matrix(1 0 0 1 0 -6)" fill="none" stroke="none" stroke-width="1"/><path id="ee7ffv7tyuqv10" d="M21.849000,8.389000L18.557000,8.389000L18.557000,4L3.195000,4C1.983876,4.002749,1.002749,4.983876,1,6.195000L1,18.265000L3.195000,18.265000C3.195000,20.083121,4.668879,21.557000,6.487000,21.557000C8.305121,21.557000,9.779000,20.083121,9.779000,18.265000L16.363000,18.265000C16.363000,20.083121,17.836879,21.557000,19.655000,21.557000C21.473121,21.557000,22.947000,20.083121,22.947000,18.265000L25.142000,18.265000L25.142000,12.778000ZM6.487000,19.911000C5.577939,19.911000,4.841000,19.174061,4.841000,18.265000C4.841000,17.355939,5.577939,16.619000,6.487000,16.619000C7.396061,16.619000,8.133000,17.355939,8.133000,18.265000C8.133532,18.701709,7.960285,19.120685,7.651485,19.429485C7.342685,19.738285,6.923709,19.911532,6.487000,19.911000ZM21.300000,10.035000L23.451000,12.778000L18.557000,12.778000L18.557000,10.035000ZM19.654000,19.911000C18.744939,19.911000,18.008000,19.174061,18.008000,18.265000C18.008000,17.355939,18.744939,16.619000,19.654000,16.619000C20.563061,16.619000,21.300000,17.355939,21.300000,18.265000C21.300532,18.701709,21.127285,19.120685,20.818485,19.429485C20.509685,19.738285,20.090709,19.911532,19.654000,19.911000Z" transform="matrix(1 0 0 1 0.09700000000000 -5.61100000000000)" fill="rgb(255,243,101)" stroke="none" stroke-width="1"/></g></g><g id="ee7ffv7tyuqv11" transform="matrix(1 0 0 1 -431 344)"><ellipse id="ee7ffv7tyuqv12" rx="17" ry="16.500000" transform="matrix(1 0 0 1 17 4.50000000000000)" fill="none" stroke="none" stroke-width="5"/><g id="ee7ffv7tyuqv13_ts" transform="translate(17,4.500000) scale(1,1)"><ellipse id="ee7ffv7tyuqv13" rx="14.500000" ry="14" transform="translate(0,0)" fill="none" stroke="rgb(106,63,27)" stroke-width="5"/></g></g><g id="ee7ffv7tyuqv14" transform="matrix(1 0 0 1 -431 344)"><ellipse id="ee7ffv7tyuqv15" rx="17" ry="16.500000" transform="matrix(1 0 0 1 17 4.50000000000000)" fill="none" stroke="none" stroke-width="5"/><g id="ee7ffv7tyuqv16_ts" transform="translate(17,4.500000) scale(1,1)"><ellipse id="ee7ffv7tyuqv16" rx="14.500000" ry="14" transform="translate(0,0)" fill="none" stroke="rgb(106,63,27)" stroke-width="5"/></g></g><g id="ee7ffv7tyuqv17" transform="matrix(1 0 0 1 -431 344)"><ellipse id="ee7ffv7tyuqv18" rx="17" ry="16.500000" transform="matrix(1 0 0 1 17 4.50000000000000)" fill="none" stroke="none" stroke-width="5"/><g id="ee7ffv7tyuqv19_ts" transform="translate(17,4.500000) scale(1,1)"><ellipse id="ee7ffv7tyuqv19" rx="14.500000" ry="14" transform="translate(0,0)" fill="none" stroke="rgb(106,63,27)" stroke-width="5"/></g></g><g id="ee7ffv7tyuqv20" transform="matrix(1 0 0 1 -431 344)"><ellipse id="ee7ffv7tyuqv21" rx="17" ry="16.500000" transform="matrix(1 0 0 1 17 4.50000000000000)" fill="none" stroke="none" stroke-width="5"/><ellipse id="ee7ffv7tyuqv22" rx="14.500000" ry="14" transform="matrix(1 0 0 1 17 4.50000000000000)" fill="none" stroke="rgb(106,63,27)" stroke-width="5"/></g></g></svg>