<svg xmlns="http://www.w3.org/2000/svg" width="126.369" height="190.825" viewBox="0 0 126.369 190.825">
  <g id="youpslogo" transform="translate(-124 -298.727)">
    <g id="local_shipping-24px" transform="translate(124 298.727)">
      <path id="Path_1" data-name="Path 1" d="M0,0H126.369V126.369H0Z" fill="none"/>
      <path id="Path_2" data-name="Path 2" d="M101.042,25.061h-15.8V4H11.531A10.562,10.562,0,0,0,1,14.531V72.45H11.531a15.8,15.8,0,0,0,31.592,0H74.715a15.8,15.8,0,0,0,31.592,0h10.531V46.123ZM27.327,80.348a7.887,7.887,0,1,1,5.59-2.31,7.9,7.9,0,0,1-5.59,2.31ZM98.409,32.96l10.32,13.163H85.246V32.96Zm-7.9,47.388A7.887,7.887,0,1,1,96.1,78.037a7.9,7.9,0,0,1-5.591,2.311Z" transform="translate(4.265 17.061)" fill="#fff365"/>
    </g>
    <path id="YouPS" d="M26.5-31.74H21.482L13.2-17.158,4.968-31.74H-.046l11.04,18.446V0h4.462V-13.294ZM47.242-10.856c0-6.762-5.06-11.408-11.546-11.408-6.532,0-11.592,4.646-11.592,11.408C24.1-4.048,29.164.506,35.7.506,42.182.506,47.242-4.048,47.242-10.856Zm-4.462-.138c0,4.324-2.714,7.728-7.084,7.728-4.416,0-7.13-3.4-7.13-7.728,0-4.278,2.714-7.682,7.13-7.682C40.066-18.676,42.78-15.272,42.78-10.994ZM70.426,0V-21.9H66.01v11.73c0,3.68-1.564,6.992-5.428,6.992-3.91,0-4.554-2.806-4.554-5.8V-21.9h-4.37v13.11c0,5.428,1.61,9.292,7.682,9.292A7.617,7.617,0,0,0,66.1-3.128L66.148,0Z" transform="translate(125 489)" fill="#fff"/>
    <path id="YouPS-2" data-name="YouPS" d="M25.852-21.758c0-7.084-5.106-9.982-11.592-9.982H2.9V0H10.35V-11.73h3.91C20.746-11.73,25.852-14.674,25.852-21.758Zm-7.544,0c0,3.266-2.208,4.278-5.106,4.278H10.3v-8.51h2.9C16.054-25.99,18.308-24.978,18.308-21.758ZM50.922-9.66c0-4.6-2.852-7.222-6.9-8.694-1.012-.414-3.358-1.242-4.738-1.794-1.426-.552-3.22-1.288-3.22-3.22s1.748-2.852,4.14-2.852A10.954,10.954,0,0,1,47.288-23l3.174-5.2a15.63,15.63,0,0,0-10.074-3.91c-3.68,0-6.578,1.012-8.372,2.53A8.939,8.939,0,0,0,28.7-22.632a7.834,7.834,0,0,0,2.484,6.118,12.4,12.4,0,0,0,3.772,2.3c1.058.46,3.45,1.288,4.83,1.794s3.726,1.334,3.726,3.5c0,2.116-1.84,3.266-4.232,3.266-2.438,0-5.98-1.61-8.28-4l-3.68,5.428A17.207,17.207,0,0,0,38.594.552C44.758.552,50.922-2.806,50.922-9.66Z" transform="translate(198 489)" fill="#fef365"/>
  </g>
</svg>
