<svg id="e585ac6o810h1" xmlns="http://www.w3.org/2000/svg" xmlns:xlink="http://www.w3.org/1999/xlink" viewBox="0 0 45 45" shape-rendering="geometricPrecision" text-rendering="geometricPrecision"><style><![CDATA[#e585ac6o810h13_tr {animation: e585ac6o810h13_tr__tr 3000ms linear infinite normal forwards}@keyframes e585ac6o810h13_tr__tr { 0% {transform: translate(22.500000px,22.500000px) rotate(0deg)} 33.333333% {transform: translate(22.500000px,22.500000px) rotate(120deg)} 66.666667% {transform: translate(22.500000px,22.500000px) rotate(240deg)} 100% {transform: translate(22.500000px,22.500000px) rotate(360deg)} }]]></style><g id="e585ac6o810h2" transform="matrix(1 0 0 1 506 -289)"><g id="e585ac6o810h3"><circle id="e585ac6o810h4" r="22.500000" transform="matrix(1 0 0 1 -483.50000000000000 311.50000000000000)" opacity="0.324" fill="rgb(106,63,27)" stroke="none" stroke-width="1"/><g id="e585ac6o810h5" transform="matrix(1 0 0 1 -54 -3)"><g id="e585ac6o810h6" transform="matrix(1 0 0 1 -446.00200000000001 297.99799999999999)"><circle id="e585ac6o810h7" r="16.500000" transform="matrix(1 0 0 1 16.50200000000000 16.50200000000000)" fill="rgb(106,63,27)" stroke="none" stroke-width="1"/><g id="e585ac6o810h8" transform="matrix(1 0 0 1 6.91100000000000 6.94600000000000)"><path id="e585ac6o810h9" d="M0,0L19.811000,0L19.811000,19.811000L0,19.811000Z" fill="none" stroke="none" stroke-width="1"/><path id="e585ac6o810h10" d="M16.684000,7.300000L14.208000,7.300000L14.208000,4L2.651000,4C1.740318,4.002746,1.002746,4.740318,1,5.651000L1,14.731000L2.651000,14.731000C2.651000,16.098733,3.759767,17.207500,5.127500,17.207500C6.495233,17.207500,7.604000,16.098733,7.604000,14.731000L12.557000,14.731000C12.557000,16.098733,13.665767,17.207500,15.033500,17.207500C16.401233,17.207500,17.510000,16.098733,17.510000,14.731000L19.160000,14.731000L19.160000,10.600000ZM5.127000,15.969000C4.443271,15.969000,3.889000,15.414729,3.889000,14.731000C3.889000,14.047271,4.443271,13.493000,5.127000,13.493000C5.810729,13.493000,6.365000,14.047271,6.365000,14.731000C6.365266,15.059419,6.234919,15.374464,6.002691,15.606691C5.770464,15.838919,5.455419,15.969266,5.127000,15.969000ZM16.271000,8.540000L17.889000,10.600000L14.208000,10.600000L14.208000,8.540000ZM15.033000,15.969000C14.532276,15.969000,14.080856,15.667371,13.889237,15.204762C13.697618,14.742153,13.803536,14.209667,14.157602,13.855602C14.511667,13.501536,15.044153,13.395618,15.506762,13.587237C15.969371,13.778856,16.271000,14.230276,16.271000,14.731000C16.271266,15.059419,16.140919,15.374464,15.908691,15.606691C15.676464,15.838919,15.361419,15.969266,15.033000,15.969000Z" transform="matrix(1 0 0 1 -0.17500000000000 -0.69800000000000)" fill="rgb(255,243,101)" stroke="none" stroke-width="1"/></g></g></g></g><g id="e585ac6o810h11" transform="matrix(1 0 0 1 -506 289)" opacity="0.515"><circle id="e585ac6o810h12" r="22.500000" transform="matrix(1 0 0 1 22.50000000000000 22.50000000000000)" fill="none" stroke="none" stroke-width="5" stroke-dasharray="102"/><g id="e585ac6o810h13_tr" transform="translate(22.500000,22.500000) rotate(0)"><circle id="e585ac6o810h13" r="20" transform="translate(0,0)" fill="none" stroke="rgb(106,63,27)" stroke-width="5" stroke-dasharray="102"/></g></g></g></svg>